<svg width="704" height="534" viewBox="0 0 704 534" fill="none" xmlns="http://www.w3.org/2000/svg">
<g opacity="0.4">
<circle cx="3.88583" cy="505.29" r="2.51253" fill="#A1C487" fill-opacity="0.69"/>
<circle cx="50.3678" cy="505.29" r="2.51253" fill="#A1C487" fill-opacity="0.69"/>
<circle cx="96.8496" cy="505.29" r="2.51253" fill="#A1C487" fill-opacity="0.69"/>
<circle cx="143.331" cy="505.29" r="2.51253" fill="#A1C487" fill-opacity="0.69"/>
<circle cx="189.813" cy="505.29" r="2.51253" fill="#A1C487" fill-opacity="0.69"/>
<circle cx="236.295" cy="505.29" r="2.51253" fill="#A1C487" fill-opacity="0.69"/>
<circle cx="282.777" cy="505.29" r="2.51253" fill="#A1C487" fill-opacity="0.69"/>
<circle cx="329.259" cy="505.29" r="2.51253" fill="#A1C487" fill-opacity="0.69"/>
<circle cx="375.741" cy="505.29" r="2.51253" fill="#A1C487" fill-opacity="0.69"/>
<circle cx="422.223" cy="505.29" r="2.51253" fill="#A1C487" fill-opacity="0.69"/>
<circle cx="468.705" cy="505.29" r="2.51253" fill="#A1C487" fill-opacity="0.69"/>
<circle cx="515.187" cy="505.29" r="2.51253" fill="#A1C487" fill-opacity="0.69"/>
<circle cx="561.669" cy="505.29" r="2.51253" fill="#A1C487" fill-opacity="0.69"/>
<circle cx="608.15" cy="505.29" r="2.51253" fill="#A1C487" fill-opacity="0.69"/>
<circle cx="654.632" cy="505.29" r="2.51253" fill="#A1C487" fill-opacity="0.69"/>
<circle cx="701.114" cy="505.29" r="2.51253" fill="#A1C487" fill-opacity="0.69"/>
<circle cx="3.88583" cy="460.064" r="2.51253" fill="#A1C487" fill-opacity="0.69"/>
<circle cx="50.3678" cy="460.064" r="2.51253" fill="#A1C487" fill-opacity="0.69"/>
<circle cx="96.8496" cy="460.064" r="2.51253" fill="#A1C487" fill-opacity="0.69"/>
<circle cx="143.331" cy="460.064" r="2.51253" fill="#A1C487" fill-opacity="0.69"/>
<circle cx="189.813" cy="460.064" r="2.51253" fill="#A1C487" fill-opacity="0.69"/>
<circle cx="236.295" cy="460.064" r="2.51253" fill="#A1C487" fill-opacity="0.69"/>
<circle cx="282.777" cy="460.064" r="2.51253" fill="#A1C487" fill-opacity="0.69"/>
<circle cx="329.259" cy="460.064" r="2.51253" fill="#A1C487" fill-opacity="0.69"/>
<circle cx="375.741" cy="460.064" r="2.51253" fill="#A1C487" fill-opacity="0.69"/>
<circle cx="422.223" cy="460.064" r="2.51253" fill="#A1C487" fill-opacity="0.69"/>
<circle cx="468.705" cy="460.064" r="2.51253" fill="#A1C487" fill-opacity="0.69"/>
<circle cx="515.187" cy="460.064" r="2.51253" fill="#A1C487" fill-opacity="0.69"/>
<circle cx="561.669" cy="460.064" r="2.51253" fill="#A1C487" fill-opacity="0.69"/>
<circle cx="608.15" cy="460.064" r="2.51253" fill="#A1C487" fill-opacity="0.69"/>
<circle cx="654.632" cy="460.064" r="2.51253" fill="#A1C487" fill-opacity="0.69"/>
<circle cx="701.114" cy="460.064" r="2.51253" fill="#A1C487" fill-opacity="0.69"/>
<circle cx="3.88583" cy="414.839" r="2.51253" fill="#A1C487" fill-opacity="0.69"/>
<circle cx="50.3678" cy="414.839" r="2.51253" fill="#A1C487" fill-opacity="0.69"/>
<circle cx="96.8496" cy="414.839" r="2.51253" fill="#A1C487" fill-opacity="0.69"/>
<circle cx="143.331" cy="414.839" r="2.51253" fill="#A1C487" fill-opacity="0.69"/>
<circle cx="189.813" cy="414.839" r="2.51253" fill="#A1C487" fill-opacity="0.69"/>
<circle cx="236.295" cy="414.839" r="2.51253" fill="#A1C487" fill-opacity="0.69"/>
<circle cx="282.777" cy="414.839" r="2.51253" fill="#A1C487" fill-opacity="0.69"/>
<circle cx="329.259" cy="414.839" r="2.51253" fill="#A1C487" fill-opacity="0.69"/>
<circle cx="375.741" cy="414.839" r="2.51253" fill="#A1C487" fill-opacity="0.69"/>
<circle cx="422.223" cy="414.839" r="2.51253" fill="#A1C487" fill-opacity="0.69"/>
<circle cx="468.705" cy="414.839" r="2.51253" fill="#A1C487" fill-opacity="0.69"/>
<circle cx="515.187" cy="414.839" r="2.51253" fill="#A1C487" fill-opacity="0.69"/>
<circle cx="561.669" cy="414.839" r="2.51253" fill="#A1C487" fill-opacity="0.69"/>
<circle cx="608.15" cy="414.839" r="2.51253" fill="#A1C487" fill-opacity="0.69"/>
<circle cx="654.632" cy="414.839" r="2.51253" fill="#A1C487" fill-opacity="0.69"/>
<circle cx="701.114" cy="414.839" r="2.51253" fill="#A1C487" fill-opacity="0.69"/>
<circle cx="3.88583" cy="369.613" r="2.51253" fill="#A1C487" fill-opacity="0.69"/>
<circle cx="50.3678" cy="369.613" r="2.51253" fill="#A1C487" fill-opacity="0.69"/>
<circle cx="96.8496" cy="369.613" r="2.51253" fill="#A1C487" fill-opacity="0.69"/>
<circle cx="143.331" cy="369.613" r="2.51253" fill="#A1C487" fill-opacity="0.69"/>
<circle cx="189.813" cy="369.613" r="2.51253" fill="#A1C487" fill-opacity="0.69"/>
<circle cx="236.295" cy="369.613" r="2.51253" fill="#A1C487" fill-opacity="0.69"/>
<circle cx="282.777" cy="369.613" r="2.51253" fill="#A1C487" fill-opacity="0.69"/>
<circle cx="329.259" cy="369.613" r="2.51253" fill="#A1C487" fill-opacity="0.69"/>
<circle cx="375.741" cy="369.613" r="2.51253" fill="#A1C487" fill-opacity="0.69"/>
<circle cx="422.223" cy="369.613" r="2.51253" fill="#A1C487" fill-opacity="0.69"/>
<circle cx="468.705" cy="369.613" r="2.51253" fill="#A1C487" fill-opacity="0.69"/>
<circle cx="515.187" cy="369.613" r="2.51253" fill="#A1C487" fill-opacity="0.69"/>
<circle cx="561.669" cy="369.613" r="2.51253" fill="#A1C487" fill-opacity="0.69"/>
<circle cx="608.15" cy="369.613" r="2.51253" fill="#A1C487" fill-opacity="0.69"/>
<circle cx="654.632" cy="369.613" r="2.51253" fill="#A1C487" fill-opacity="0.69"/>
<circle cx="701.114" cy="369.613" r="2.51253" fill="#A1C487" fill-opacity="0.69"/>
<circle cx="3.88583" cy="324.387" r="2.51253" fill="#A1C487" fill-opacity="0.69"/>
<circle cx="50.3678" cy="324.387" r="2.51253" fill="#A1C487" fill-opacity="0.69"/>
<circle cx="96.8496" cy="324.387" r="2.51253" fill="#A1C487" fill-opacity="0.69"/>
<circle cx="143.331" cy="324.387" r="2.51253" fill="#A1C487" fill-opacity="0.69"/>
<circle cx="189.813" cy="324.387" r="2.51253" fill="#A1C487" fill-opacity="0.69"/>
<circle cx="236.295" cy="324.387" r="2.51253" fill="#A1C487" fill-opacity="0.69"/>
<circle cx="282.777" cy="324.387" r="2.51253" fill="#A1C487" fill-opacity="0.69"/>
<circle cx="329.259" cy="324.387" r="2.51253" fill="#A1C487" fill-opacity="0.69"/>
<circle cx="375.741" cy="324.387" r="2.51253" fill="#A1C487" fill-opacity="0.69"/>
<circle cx="422.223" cy="324.387" r="2.51253" fill="#A1C487" fill-opacity="0.69"/>
<circle cx="468.705" cy="324.387" r="2.51253" fill="#A1C487" fill-opacity="0.69"/>
<circle cx="515.187" cy="324.387" r="2.51253" fill="#A1C487" fill-opacity="0.69"/>
<circle cx="561.669" cy="324.387" r="2.51253" fill="#A1C487" fill-opacity="0.69"/>
<circle cx="608.15" cy="324.387" r="2.51253" fill="#A1C487" fill-opacity="0.69"/>
<circle cx="654.632" cy="324.387" r="2.51253" fill="#A1C487" fill-opacity="0.69"/>
<circle cx="701.114" cy="324.387" r="2.51253" fill="#A1C487" fill-opacity="0.69"/>
<circle cx="3.88583" cy="279.162" r="2.51253" fill="#A1C487" fill-opacity="0.69"/>
<circle cx="50.3678" cy="279.162" r="2.51253" fill="#A1C487" fill-opacity="0.69"/>
<circle cx="96.8496" cy="279.162" r="2.51253" fill="#A1C487" fill-opacity="0.69"/>
<circle cx="143.331" cy="279.162" r="2.51253" fill="#A1C487" fill-opacity="0.69"/>
<circle cx="189.813" cy="279.162" r="2.51253" fill="#A1C487" fill-opacity="0.69"/>
<circle cx="236.295" cy="279.162" r="2.51253" fill="#A1C487" fill-opacity="0.69"/>
<circle cx="282.777" cy="279.162" r="2.51253" fill="#A1C487" fill-opacity="0.69"/>
<circle cx="329.259" cy="279.162" r="2.51253" fill="#A1C487" fill-opacity="0.69"/>
<circle cx="375.741" cy="279.162" r="2.51253" fill="#A1C487" fill-opacity="0.69"/>
<circle cx="422.223" cy="279.162" r="2.51253" fill="#A1C487" fill-opacity="0.69"/>
<circle cx="468.705" cy="279.162" r="2.51253" fill="#A1C487" fill-opacity="0.69"/>
<circle cx="515.187" cy="279.162" r="2.51253" fill="#A1C487" fill-opacity="0.69"/>
<circle cx="561.669" cy="279.162" r="2.51253" fill="#A1C487" fill-opacity="0.69"/>
<circle cx="608.15" cy="279.162" r="2.51253" fill="#A1C487" fill-opacity="0.69"/>
<circle cx="654.632" cy="279.162" r="2.51253" fill="#A1C487" fill-opacity="0.69"/>
<circle cx="701.114" cy="279.162" r="2.51253" fill="#A1C487" fill-opacity="0.69"/>
<circle cx="3.88583" cy="233.936" r="2.51253" fill="#A1C487" fill-opacity="0.69"/>
<circle cx="50.3678" cy="233.936" r="2.51253" fill="#A1C487" fill-opacity="0.69"/>
<circle cx="96.8496" cy="233.936" r="2.51253" fill="#A1C487" fill-opacity="0.69"/>
<circle cx="143.331" cy="233.936" r="2.51253" fill="#A1C487" fill-opacity="0.69"/>
<circle cx="189.813" cy="233.936" r="2.51253" fill="#A1C487" fill-opacity="0.69"/>
<circle cx="236.295" cy="233.936" r="2.51253" fill="#A1C487" fill-opacity="0.69"/>
<circle cx="282.777" cy="233.936" r="2.51253" fill="#A1C487" fill-opacity="0.69"/>
<circle cx="329.259" cy="233.936" r="2.51253" fill="#A1C487" fill-opacity="0.69"/>
<circle cx="375.741" cy="233.936" r="2.51253" fill="#A1C487" fill-opacity="0.69"/>
<circle cx="422.223" cy="233.936" r="2.51253" fill="#A1C487" fill-opacity="0.69"/>
<circle cx="468.705" cy="233.936" r="2.51253" fill="#A1C487" fill-opacity="0.69"/>
<circle cx="515.187" cy="233.936" r="2.51253" fill="#A1C487" fill-opacity="0.69"/>
<circle cx="561.669" cy="233.936" r="2.51253" fill="#A1C487" fill-opacity="0.69"/>
<circle cx="608.15" cy="233.936" r="2.51253" fill="#A1C487" fill-opacity="0.69"/>
<circle cx="654.632" cy="233.936" r="2.51253" fill="#A1C487" fill-opacity="0.69"/>
<circle cx="701.114" cy="233.936" r="2.51253" fill="#A1C487" fill-opacity="0.69"/>
<circle cx="3.88583" cy="188.71" r="2.51253" fill="#A1C487" fill-opacity="0.69"/>
<circle cx="50.3678" cy="188.71" r="2.51253" fill="#A1C487" fill-opacity="0.69"/>
<circle cx="96.8496" cy="188.71" r="2.51253" fill="#A1C487" fill-opacity="0.69"/>
<circle cx="143.331" cy="188.71" r="2.51253" fill="#A1C487" fill-opacity="0.69"/>
<circle cx="189.813" cy="188.71" r="2.51253" fill="#A1C487" fill-opacity="0.69"/>
<circle cx="236.295" cy="188.71" r="2.51253" fill="#A1C487" fill-opacity="0.69"/>
<circle cx="282.777" cy="188.71" r="2.51253" fill="#A1C487" fill-opacity="0.69"/>
<circle cx="329.259" cy="188.71" r="2.51253" fill="#A1C487" fill-opacity="0.69"/>
<circle cx="375.741" cy="188.71" r="2.51253" fill="#A1C487" fill-opacity="0.69"/>
<circle cx="422.223" cy="188.71" r="2.51253" fill="#A1C487" fill-opacity="0.69"/>
<circle cx="468.705" cy="188.71" r="2.51253" fill="#A1C487" fill-opacity="0.69"/>
<circle cx="515.187" cy="188.71" r="2.51253" fill="#A1C487" fill-opacity="0.69"/>
<circle cx="561.669" cy="188.71" r="2.51253" fill="#A1C487" fill-opacity="0.69"/>
<circle cx="608.15" cy="188.71" r="2.51253" fill="#A1C487" fill-opacity="0.69"/>
<circle cx="654.632" cy="188.71" r="2.51253" fill="#A1C487" fill-opacity="0.69"/>
<circle cx="701.114" cy="188.71" r="2.51253" fill="#A1C487" fill-opacity="0.69"/>
<circle cx="3.88583" cy="143.485" r="2.51253" fill="#A1C487" fill-opacity="0.69"/>
<circle cx="50.3678" cy="143.485" r="2.51253" fill="#A1C487" fill-opacity="0.69"/>
<circle cx="96.8496" cy="143.485" r="2.51253" fill="#A1C487" fill-opacity="0.69"/>
<circle cx="143.331" cy="143.485" r="2.51253" fill="#A1C487" fill-opacity="0.69"/>
<circle cx="189.813" cy="143.485" r="2.51253" fill="#A1C487" fill-opacity="0.69"/>
<circle cx="236.295" cy="143.485" r="2.51253" fill="#A1C487" fill-opacity="0.69"/>
<circle cx="282.777" cy="143.485" r="2.51253" fill="#A1C487" fill-opacity="0.69"/>
<circle cx="329.259" cy="143.485" r="2.51253" fill="#A1C487" fill-opacity="0.69"/>
<circle cx="375.741" cy="143.485" r="2.51253" fill="#A1C487" fill-opacity="0.69"/>
<circle cx="422.223" cy="143.485" r="2.51253" fill="#A1C487" fill-opacity="0.69"/>
<circle cx="468.705" cy="143.485" r="2.51253" fill="#A1C487" fill-opacity="0.69"/>
<circle cx="515.187" cy="143.485" r="2.51253" fill="#A1C487" fill-opacity="0.69"/>
<circle cx="561.669" cy="143.485" r="2.51253" fill="#A1C487" fill-opacity="0.69"/>
<circle cx="608.15" cy="143.485" r="2.51253" fill="#A1C487" fill-opacity="0.69"/>
<circle cx="654.632" cy="143.485" r="2.51253" fill="#A1C487" fill-opacity="0.69"/>
<circle cx="701.114" cy="143.485" r="2.51253" fill="#A1C487" fill-opacity="0.69"/>
<circle cx="3.88583" cy="98.2591" r="2.51253" fill="#A1C487" fill-opacity="0.69"/>
<circle cx="50.3678" cy="98.2591" r="2.51253" fill="#A1C487" fill-opacity="0.69"/>
<circle cx="96.8496" cy="98.2591" r="2.51253" fill="#A1C487" fill-opacity="0.69"/>
<circle cx="143.331" cy="98.2591" r="2.51253" fill="#A1C487" fill-opacity="0.69"/>
<circle cx="189.813" cy="98.2591" r="2.51253" fill="#A1C487" fill-opacity="0.69"/>
<circle cx="236.295" cy="98.2591" r="2.51253" fill="#A1C487" fill-opacity="0.69"/>
<circle cx="282.777" cy="98.2591" r="2.51253" fill="#A1C487" fill-opacity="0.69"/>
<circle cx="329.259" cy="98.2591" r="2.51253" fill="#A1C487" fill-opacity="0.69"/>
<circle cx="375.741" cy="98.2591" r="2.51253" fill="#A1C487" fill-opacity="0.69"/>
<circle cx="422.223" cy="98.2591" r="2.51253" fill="#A1C487" fill-opacity="0.69"/>
<circle cx="468.705" cy="98.2591" r="2.51253" fill="#A1C487" fill-opacity="0.69"/>
<circle cx="515.187" cy="98.2591" r="2.51253" fill="#A1C487" fill-opacity="0.69"/>
<circle cx="561.669" cy="98.2591" r="2.51253" fill="#A1C487" fill-opacity="0.69"/>
<circle cx="608.15" cy="98.2591" r="2.51253" fill="#A1C487" fill-opacity="0.69"/>
<circle cx="654.632" cy="98.2591" r="2.51253" fill="#A1C487" fill-opacity="0.69"/>
<circle cx="701.114" cy="98.2591" r="2.51253" fill="#A1C487" fill-opacity="0.69"/>
<circle cx="3.88583" cy="53.0335" r="2.51253" fill="#A1C487" fill-opacity="0.69"/>
<circle cx="50.3678" cy="53.0335" r="2.51253" fill="#A1C487" fill-opacity="0.69"/>
<circle cx="96.8496" cy="53.0335" r="2.51253" fill="#A1C487" fill-opacity="0.69"/>
<circle cx="143.331" cy="53.0335" r="2.51253" fill="#A1C487" fill-opacity="0.69"/>
<circle cx="189.813" cy="53.0335" r="2.51253" fill="#A1C487" fill-opacity="0.69"/>
<circle cx="236.295" cy="53.0335" r="2.51253" fill="#A1C487" fill-opacity="0.69"/>
<circle cx="282.777" cy="53.0335" r="2.51253" fill="#A1C487" fill-opacity="0.69"/>
<circle cx="329.259" cy="53.0335" r="2.51253" fill="#A1C487" fill-opacity="0.69"/>
<circle cx="375.741" cy="53.0335" r="2.51253" fill="#A1C487" fill-opacity="0.69"/>
<circle cx="422.223" cy="53.0335" r="2.51253" fill="#A1C487" fill-opacity="0.69"/>
<circle cx="468.705" cy="53.0335" r="2.51253" fill="#A1C487" fill-opacity="0.69"/>
<circle cx="515.187" cy="53.0335" r="2.51253" fill="#A1C487" fill-opacity="0.69"/>
<circle cx="561.669" cy="53.0335" r="2.51253" fill="#A1C487" fill-opacity="0.69"/>
<circle cx="608.15" cy="53.0335" r="2.51253" fill="#A1C487" fill-opacity="0.69"/>
<circle cx="654.632" cy="53.0335" r="2.51253" fill="#A1C487" fill-opacity="0.69"/>
<circle cx="701.114" cy="53.0335" r="2.51253" fill="#A1C487" fill-opacity="0.69"/>
<circle cx="3.88583" cy="7.80795" r="2.51253" fill="#A1C487" fill-opacity="0.69"/>
<circle cx="50.3678" cy="7.80795" r="2.51253" fill="#A1C487" fill-opacity="0.69"/>
<circle cx="96.8496" cy="7.80795" r="2.51253" fill="#A1C487" fill-opacity="0.69"/>
<circle cx="143.331" cy="7.80795" r="2.51253" fill="#A1C487" fill-opacity="0.69"/>
<circle cx="189.813" cy="7.80795" r="2.51253" fill="#A1C487" fill-opacity="0.69"/>
<circle cx="236.295" cy="7.80795" r="2.51253" fill="#A1C487" fill-opacity="0.69"/>
<circle cx="282.777" cy="7.80795" r="2.51253" fill="#A1C487" fill-opacity="0.69"/>
<circle cx="329.259" cy="7.80795" r="2.51253" fill="#A1C487" fill-opacity="0.69"/>
<circle cx="375.741" cy="7.80795" r="2.51253" fill="#A1C487" fill-opacity="0.69"/>
<circle cx="422.223" cy="7.80795" r="2.51253" fill="#A1C487" fill-opacity="0.69"/>
<circle cx="468.705" cy="7.80795" r="2.51253" fill="#A1C487" fill-opacity="0.69"/>
<circle cx="515.187" cy="7.80795" r="2.51253" fill="#A1C487" fill-opacity="0.69"/>
<circle cx="561.669" cy="7.80795" r="2.51253" fill="#A1C487" fill-opacity="0.69"/>
<circle cx="608.15" cy="7.80795" r="2.51253" fill="#A1C487" fill-opacity="0.69"/>
<circle cx="654.632" cy="7.80795" r="2.51253" fill="#A1C487" fill-opacity="0.69"/>
<circle cx="701.114" cy="7.80795" r="2.51253" fill="#A1C487" fill-opacity="0.69"/>
</g>
</svg>
