<svg width="335" height="484" viewBox="0 0 335 484" fill="none" xmlns="http://www.w3.org/2000/svg">
<g opacity="0.4">
<circle cx="3.88583" cy="460.064" r="2.51253" fill="#A1C487" fill-opacity="0.69"/>
<circle cx="50.3678" cy="460.064" r="2.51253" fill="#A1C487" fill-opacity="0.69"/>
<circle cx="96.8494" cy="460.064" r="2.51253" fill="#A1C487" fill-opacity="0.69"/>
<circle cx="143.331" cy="460.064" r="2.51253" fill="#A1C487" fill-opacity="0.69"/>
<circle cx="189.813" cy="460.064" r="2.51253" fill="#A1C487" fill-opacity="0.69"/>
<circle cx="236.295" cy="460.064" r="2.51253" fill="#A1C487" fill-opacity="0.69"/>
<circle cx="282.777" cy="460.064" r="2.51253" fill="#A1C487" fill-opacity="0.69"/>
<circle cx="329.259" cy="460.064" r="2.51253" fill="#A1C487" fill-opacity="0.69"/>
<circle cx="3.88583" cy="414.839" r="2.51253" fill="#A1C487" fill-opacity="0.69"/>
<circle cx="50.3678" cy="414.839" r="2.51253" fill="#A1C487" fill-opacity="0.69"/>
<circle cx="96.8494" cy="414.839" r="2.51253" fill="#A1C487" fill-opacity="0.69"/>
<circle cx="143.331" cy="414.839" r="2.51253" fill="#A1C487" fill-opacity="0.69"/>
<circle cx="189.813" cy="414.839" r="2.51253" fill="#A1C487" fill-opacity="0.69"/>
<circle cx="236.295" cy="414.839" r="2.51253" fill="#A1C487" fill-opacity="0.69"/>
<circle cx="282.777" cy="414.839" r="2.51253" fill="#A1C487" fill-opacity="0.69"/>
<circle cx="329.259" cy="414.839" r="2.51253" fill="#A1C487" fill-opacity="0.69"/>
<circle cx="3.88583" cy="369.613" r="2.51253" fill="#A1C487" fill-opacity="0.69"/>
<circle cx="50.3678" cy="369.613" r="2.51253" fill="#A1C487" fill-opacity="0.69"/>
<circle cx="96.8494" cy="369.613" r="2.51253" fill="#A1C487" fill-opacity="0.69"/>
<circle cx="143.331" cy="369.613" r="2.51253" fill="#A1C487" fill-opacity="0.69"/>
<circle cx="189.813" cy="369.613" r="2.51253" fill="#A1C487" fill-opacity="0.69"/>
<circle cx="236.295" cy="369.613" r="2.51253" fill="#A1C487" fill-opacity="0.69"/>
<circle cx="282.777" cy="369.613" r="2.51253" fill="#A1C487" fill-opacity="0.69"/>
<circle cx="329.259" cy="369.613" r="2.51253" fill="#A1C487" fill-opacity="0.69"/>
<circle cx="3.88583" cy="324.388" r="2.51253" fill="#A1C487" fill-opacity="0.69"/>
<circle cx="50.3678" cy="324.388" r="2.51253" fill="#A1C487" fill-opacity="0.69"/>
<circle cx="96.8494" cy="324.388" r="2.51253" fill="#A1C487" fill-opacity="0.69"/>
<circle cx="143.331" cy="324.388" r="2.51253" fill="#A1C487" fill-opacity="0.69"/>
<circle cx="189.813" cy="324.388" r="2.51253" fill="#A1C487" fill-opacity="0.69"/>
<circle cx="236.295" cy="324.388" r="2.51253" fill="#A1C487" fill-opacity="0.69"/>
<circle cx="282.777" cy="324.388" r="2.51253" fill="#A1C487" fill-opacity="0.69"/>
<circle cx="329.259" cy="324.388" r="2.51253" fill="#A1C487" fill-opacity="0.69"/>
<circle cx="3.88583" cy="279.162" r="2.51253" fill="#A1C487" fill-opacity="0.69"/>
<circle cx="50.3678" cy="279.162" r="2.51253" fill="#A1C487" fill-opacity="0.69"/>
<circle cx="96.8494" cy="279.162" r="2.51253" fill="#A1C487" fill-opacity="0.69"/>
<circle cx="143.331" cy="279.162" r="2.51253" fill="#A1C487" fill-opacity="0.69"/>
<circle cx="189.813" cy="279.162" r="2.51253" fill="#A1C487" fill-opacity="0.69"/>
<circle cx="236.295" cy="279.162" r="2.51253" fill="#A1C487" fill-opacity="0.69"/>
<circle cx="282.777" cy="279.162" r="2.51253" fill="#A1C487" fill-opacity="0.69"/>
<circle cx="329.259" cy="279.162" r="2.51253" fill="#A1C487" fill-opacity="0.69"/>
<circle cx="3.88583" cy="233.936" r="2.51253" fill="#A1C487" fill-opacity="0.69"/>
<circle cx="50.3678" cy="233.936" r="2.51253" fill="#A1C487" fill-opacity="0.69"/>
<circle cx="96.8494" cy="233.936" r="2.51253" fill="#A1C487" fill-opacity="0.69"/>
<circle cx="143.331" cy="233.936" r="2.51253" fill="#A1C487" fill-opacity="0.69"/>
<circle cx="189.813" cy="233.936" r="2.51253" fill="#A1C487" fill-opacity="0.69"/>
<circle cx="236.295" cy="233.936" r="2.51253" fill="#A1C487" fill-opacity="0.69"/>
<circle cx="282.777" cy="233.936" r="2.51253" fill="#A1C487" fill-opacity="0.69"/>
<circle cx="329.259" cy="233.936" r="2.51253" fill="#A1C487" fill-opacity="0.69"/>
<circle cx="3.88583" cy="188.71" r="2.51253" fill="#A1C487" fill-opacity="0.69"/>
<circle cx="50.3678" cy="188.71" r="2.51253" fill="#A1C487" fill-opacity="0.69"/>
<circle cx="96.8494" cy="188.71" r="2.51253" fill="#A1C487" fill-opacity="0.69"/>
<circle cx="143.331" cy="188.71" r="2.51253" fill="#A1C487" fill-opacity="0.69"/>
<circle cx="189.813" cy="188.71" r="2.51253" fill="#A1C487" fill-opacity="0.69"/>
<circle cx="236.295" cy="188.71" r="2.51253" fill="#A1C487" fill-opacity="0.69"/>
<circle cx="282.777" cy="188.71" r="2.51253" fill="#A1C487" fill-opacity="0.69"/>
<circle cx="329.259" cy="188.71" r="2.51253" fill="#A1C487" fill-opacity="0.69"/>
<circle cx="3.88583" cy="143.485" r="2.51253" fill="#A1C487" fill-opacity="0.69"/>
<circle cx="50.3678" cy="143.485" r="2.51253" fill="#A1C487" fill-opacity="0.69"/>
<circle cx="96.8494" cy="143.485" r="2.51253" fill="#A1C487" fill-opacity="0.69"/>
<circle cx="143.331" cy="143.485" r="2.51253" fill="#A1C487" fill-opacity="0.69"/>
<circle cx="189.813" cy="143.485" r="2.51253" fill="#A1C487" fill-opacity="0.69"/>
<circle cx="236.295" cy="143.485" r="2.51253" fill="#A1C487" fill-opacity="0.69"/>
<circle cx="282.777" cy="143.485" r="2.51253" fill="#A1C487" fill-opacity="0.69"/>
<circle cx="329.259" cy="143.485" r="2.51253" fill="#A1C487" fill-opacity="0.69"/>
<circle cx="3.88583" cy="98.2591" r="2.51253" fill="#A1C487" fill-opacity="0.69"/>
<circle cx="50.3678" cy="98.2591" r="2.51253" fill="#A1C487" fill-opacity="0.69"/>
<circle cx="96.8494" cy="98.2591" r="2.51253" fill="#A1C487" fill-opacity="0.69"/>
<circle cx="143.331" cy="98.2591" r="2.51253" fill="#A1C487" fill-opacity="0.69"/>
<circle cx="189.813" cy="98.2591" r="2.51253" fill="#A1C487" fill-opacity="0.69"/>
<circle cx="236.295" cy="98.2591" r="2.51253" fill="#A1C487" fill-opacity="0.69"/>
<circle cx="282.777" cy="98.2591" r="2.51253" fill="#A1C487" fill-opacity="0.69"/>
<circle cx="329.259" cy="98.2591" r="2.51253" fill="#A1C487" fill-opacity="0.69"/>
<circle cx="3.88583" cy="53.0335" r="2.51253" fill="#A1C487" fill-opacity="0.69"/>
<circle cx="50.3678" cy="53.0335" r="2.51253" fill="#A1C487" fill-opacity="0.69"/>
<circle cx="96.8494" cy="53.0335" r="2.51253" fill="#A1C487" fill-opacity="0.69"/>
<circle cx="143.331" cy="53.0335" r="2.51253" fill="#A1C487" fill-opacity="0.69"/>
<circle cx="189.813" cy="53.0335" r="2.51253" fill="#A1C487" fill-opacity="0.69"/>
<circle cx="236.295" cy="53.0335" r="2.51253" fill="#A1C487" fill-opacity="0.69"/>
<circle cx="282.777" cy="53.0335" r="2.51253" fill="#A1C487" fill-opacity="0.69"/>
<circle cx="329.259" cy="53.0335" r="2.51253" fill="#A1C487" fill-opacity="0.69"/>
<circle cx="3.88583" cy="7.80795" r="2.51253" fill="#A1C487" fill-opacity="0.69"/>
<circle cx="50.3678" cy="7.80795" r="2.51253" fill="#A1C487" fill-opacity="0.69"/>
<circle cx="96.8494" cy="7.80795" r="2.51253" fill="#A1C487" fill-opacity="0.69"/>
<circle cx="143.331" cy="7.80795" r="2.51253" fill="#A1C487" fill-opacity="0.69"/>
<circle cx="189.813" cy="7.80795" r="2.51253" fill="#A1C487" fill-opacity="0.69"/>
<circle cx="236.295" cy="7.80795" r="2.51253" fill="#A1C487" fill-opacity="0.69"/>
<circle cx="282.777" cy="7.80795" r="2.51253" fill="#A1C487" fill-opacity="0.69"/>
<circle cx="329.259" cy="7.80795" r="2.51253" fill="#A1C487" fill-opacity="0.69"/>
</g>
</svg>
